<svg width="24" height="24" viewBox="0 0 24 24" fill="none" xmlns="http://www.w3.org/2000/svg">
<path d="M21.3333 2.66667V21.3333H2.66667V2.66667H21.3333ZM2.66667 0C1.19391 0 0 1.19391 0 2.66667V21.3333C0 22.8061 1.19391 24 2.66667 24H21.3333C22.8061 24 24 22.8061 24 21.3333V2.66667C24 1.19391 22.8061 0 21.3333 0H2.66667ZM18 16C18 17.1045 17.1045 18 16 18C14.8955 18 14 17.1045 14 16C14 14.8955 14.8955 14 16 14C17.1045 14 18 14.8955 18 16ZM8 10C9.10457 10 10 9.10457 10 8C10 6.89543 9.10457 6 8 6C6.89543 6 6 6.89543 6 8C6 9.10457 6.89543 10 8 10Z" fill="#8C8C8C"/>
</svg>
